<svg width="512" height="512" viewBox="0 0 512 512" fill="none" xmlns="http://www.w3.org/2000/svg">
<g clip-path="url(#clip0)">
<path d="M437.019 437.019C413.248 460.791 385.026 479.648 353.967 492.513C322.908 505.378 289.618 512 256 512C222.382 512 189.092 505.378 158.033 492.513C126.974 479.648 98.7525 460.791 74.9807 437.019C51.2089 413.248 32.352 385.026 19.4868 353.967C6.62164 322.908 2.17699e-06 289.618 4.38125e-06 256C6.58551e-06 222.382 6.62164 189.092 19.4869 158.033C32.3521 126.974 51.2089 98.7524 74.9807 74.9806L256 256L437.019 437.019Z" fill="#6C3F8F"/>
<path d="M74.9807 74.9807C98.7525 51.2089 126.974 32.3521 158.033 19.4869C189.092 6.62167 222.382 3.41641e-05 256 3.48988e-05C289.618 3.56336e-05 322.908 6.62167 353.967 19.4869C385.026 32.3521 413.248 51.2089 437.019 74.9807C460.791 98.7525 479.648 126.974 492.513 158.033C505.378 189.092 512 222.382 512 256C512 289.618 505.378 322.908 492.513 353.967C479.648 385.026 460.791 413.248 437.019 437.019L256 256L74.9807 74.9807Z" fill="#56237E"/>
<path d="M39.9473 270.717C39.9473 267.654 40.8405 265.102 42.627 263.061C44.4772 261.019 47.2207 259.998 50.8574 259.998C54.4941 259.998 57.2376 261.019 59.0879 263.061C61.002 265.102 61.959 267.654 61.959 270.717C61.959 273.652 61.002 276.108 59.0879 278.086C57.2376 280.064 54.4941 281.053 50.8574 281.053C47.2207 281.053 44.4772 280.064 42.627 278.086C40.8405 276.108 39.9473 273.652 39.9473 270.717ZM201.111 280H182.641L112.49 172.621V280H94.0195V140.656H112.49L182.832 248.514V140.656H201.111V280ZM312.51 215.592H252.121V264.975H322.271V280H233.746V140.656H321.314V155.777H252.121V200.566H312.51V215.592ZM443.336 155.777H398.547V280H380.268V155.777H335.574V140.656H443.336V155.777Z" fill="white"/>
<path d="M213.734 370.344C212.891 377.562 210.219 383.141 205.719 387.078C201.25 390.984 195.297 392.938 187.859 392.938C179.797 392.938 173.328 390.047 168.453 384.266C163.609 378.484 161.188 370.75 161.188 361.062V354.5C161.188 348.156 162.312 342.578 164.562 337.766C166.844 332.953 170.062 329.266 174.219 326.703C178.375 324.109 183.188 322.812 188.656 322.812C195.906 322.812 201.719 324.844 206.094 328.906C210.469 332.938 213.016 338.531 213.734 345.688H204.688C203.906 340.25 202.203 336.312 199.578 333.875C196.984 331.438 193.344 330.219 188.656 330.219C182.906 330.219 178.391 332.344 175.109 336.594C171.859 340.844 170.234 346.891 170.234 354.734V361.344C170.234 368.75 171.781 374.641 174.875 379.016C177.969 383.391 182.297 385.578 187.859 385.578C192.859 385.578 196.688 384.453 199.344 382.203C202.031 379.922 203.812 375.969 204.688 370.344H213.734ZM222.406 366.172C222.406 361.203 223.375 356.734 225.312 352.766C227.281 348.797 230 345.734 233.469 343.578C236.969 341.422 240.953 340.344 245.422 340.344C252.328 340.344 257.906 342.734 262.156 347.516C266.438 352.297 268.578 358.656 268.578 366.594V367.203C268.578 372.141 267.625 376.578 265.719 380.516C263.844 384.422 261.141 387.469 257.609 389.656C254.109 391.844 250.078 392.938 245.516 392.938C238.641 392.938 233.062 390.547 228.781 385.766C224.531 380.984 222.406 374.656 222.406 366.781V366.172ZM231.125 367.203C231.125 372.828 232.422 377.344 235.016 380.75C237.641 384.156 241.141 385.859 245.516 385.859C249.922 385.859 253.422 384.141 256.016 380.703C258.609 377.234 259.906 372.391 259.906 366.172C259.906 360.609 258.578 356.109 255.922 352.672C253.297 349.203 249.797 347.469 245.422 347.469C241.141 347.469 237.688 349.172 235.062 352.578C232.438 355.984 231.125 360.859 231.125 367.203ZM303.969 349.062C302.656 348.844 301.234 348.734 299.703 348.734C294.016 348.734 290.156 351.156 288.125 356V392H279.453V341.281H287.891L288.031 347.141C290.875 342.609 294.906 340.344 300.125 340.344C301.812 340.344 303.094 340.562 303.969 341V349.062ZM332.094 392.938C325.219 392.938 319.625 390.688 315.312 386.188C311 381.656 308.844 375.609 308.844 368.047V366.453C308.844 361.422 309.797 356.938 311.703 353C313.641 349.031 316.328 345.938 319.766 343.719C323.234 341.469 326.984 340.344 331.016 340.344C337.609 340.344 342.734 342.516 346.391 346.859C350.047 351.203 351.875 357.422 351.875 365.516V369.125H317.516C317.641 374.125 319.094 378.172 321.875 381.266C324.688 384.328 328.25 385.859 332.562 385.859C335.625 385.859 338.219 385.234 340.344 383.984C342.469 382.734 344.328 381.078 345.922 379.016L351.219 383.141C346.969 389.672 340.594 392.938 332.094 392.938ZM331.016 347.469C327.516 347.469 324.578 348.75 322.203 351.312C319.828 353.844 318.359 357.406 317.797 362H343.203V361.344C342.953 356.938 341.766 353.531 339.641 351.125C337.516 348.688 334.641 347.469 331.016 347.469Z" fill="white"/>
</g>
<defs>
<clipPath id="clip0">
<rect width="512" height="512" fill="white"/>
</clipPath>
</defs>
</svg>
