<svg width="512" height="512" viewBox="0 0 512 512" fill="none" xmlns="http://www.w3.org/2000/svg">
<g clip-path="url(#clip0)">
<path d="M437.019 437.019C413.248 460.791 385.026 479.648 353.967 492.513C322.908 505.378 289.618 512 256 512C222.382 512 189.092 505.378 158.033 492.513C126.974 479.648 98.7525 460.791 74.9807 437.019C51.2089 413.248 32.352 385.026 19.4868 353.967C6.62164 322.908 2.17699e-06 289.618 4.38125e-06 256C6.58551e-06 222.382 6.62164 189.092 19.4869 158.033C32.3521 126.974 51.2089 98.7524 74.9807 74.9806L256 256L437.019 437.019Z" fill="#6C3F8F"/>
<path d="M74.9807 74.9807C98.7525 51.2089 126.974 32.3521 158.033 19.4869C189.092 6.62167 222.382 3.41641e-05 256 3.48988e-05C289.618 3.56336e-05 322.908 6.62167 353.967 19.4869C385.026 32.3521 413.248 51.2089 437.019 74.9807C460.791 98.7525 479.648 126.974 492.513 158.033C505.378 189.092 512 222.382 512 256C512 289.618 505.378 322.908 492.513 353.967C479.648 385.026 460.791 413.248 437.019 437.019L256 256L74.9807 74.9807Z" fill="#56237E"/>
<path d="M39.9473 270.717C39.9473 267.654 40.8405 265.102 42.627 263.061C44.4772 261.019 47.2207 259.998 50.8574 259.998C54.4941 259.998 57.2376 261.019 59.0879 263.061C61.002 265.102 61.959 267.654 61.959 270.717C61.959 273.652 61.002 276.108 59.0879 278.086C57.2376 280.064 54.4941 281.053 50.8574 281.053C47.2207 281.053 44.4772 280.064 42.627 278.086C40.8405 276.108 39.9473 273.652 39.9473 270.717ZM201.111 280H182.641L112.49 172.621V280H94.0195V140.656H112.49L182.832 248.514V140.656H201.111V280ZM312.51 215.592H252.121V264.975H322.271V280H233.746V140.656H321.314V155.777H252.121V200.566H312.51V215.592ZM443.336 155.777H398.547V280H380.268V155.777H335.574V140.656H443.336V155.777Z" fill="white"/>
<path d="M112.027 360.094H88.1562V384H83.832V332.812H115.543V336.504H88.1562V356.402H112.027V360.094ZM140.012 349.547C139.121 349.383 138.172 349.301 137.164 349.301C134.539 349.301 132.312 350.039 130.484 351.516C128.68 352.969 127.391 355.09 126.617 357.879V384H122.434V345.961H126.547L126.617 352.008C128.844 347.508 132.418 345.258 137.34 345.258C138.512 345.258 139.438 345.41 140.117 345.715L140.012 349.547ZM169.297 384C168.875 382.805 168.605 381.035 168.488 378.691C167.012 380.613 165.125 382.102 162.828 383.156C160.555 384.188 158.141 384.703 155.586 384.703C151.93 384.703 148.965 383.684 146.691 381.645C144.441 379.605 143.316 377.027 143.316 373.91C143.316 370.207 144.852 367.277 147.922 365.121C151.016 362.965 155.316 361.887 160.824 361.887H168.453V357.562C168.453 354.844 167.609 352.711 165.922 351.164C164.258 349.594 161.82 348.809 158.609 348.809C155.68 348.809 153.254 349.559 151.332 351.059C149.41 352.559 148.449 354.363 148.449 356.473L144.23 356.438C144.23 353.414 145.637 350.801 148.449 348.598C151.262 346.371 154.719 345.258 158.82 345.258C163.062 345.258 166.402 346.324 168.84 348.457C171.301 350.566 172.566 353.52 172.637 357.316V375.316C172.637 378.996 173.023 381.75 173.797 383.578V384H169.297ZM156.078 380.977C158.891 380.977 161.398 380.297 163.602 378.938C165.828 377.578 167.445 375.762 168.453 373.488V365.121H160.93C156.734 365.168 153.453 365.941 151.086 367.441C148.719 368.918 147.535 370.957 147.535 373.559C147.535 375.691 148.32 377.461 149.891 378.867C151.484 380.273 153.547 380.977 156.078 380.977ZM187.719 345.961L187.859 352.148C189.266 349.852 191.023 348.129 193.133 346.98C195.242 345.832 197.586 345.258 200.164 345.258C206.164 345.258 209.973 347.719 211.59 352.641C212.949 350.273 214.766 348.457 217.039 347.191C219.312 345.902 221.82 345.258 224.562 345.258C232.719 345.258 236.879 349.711 237.043 358.617V384H232.824V358.934C232.801 355.535 232.062 353.016 230.609 351.375C229.18 349.734 226.836 348.914 223.578 348.914C220.555 348.961 218 349.945 215.914 351.867C213.828 353.766 212.668 356.086 212.434 358.828V384H208.215V358.617C208.191 355.359 207.418 352.934 205.895 351.34C204.395 349.723 202.074 348.914 198.934 348.914C196.285 348.914 194.012 349.676 192.113 351.199C190.215 352.699 188.809 354.938 187.895 357.914V384H183.676V345.961H187.719ZM262.461 384.703C259.227 384.703 256.297 383.906 253.672 382.312C251.07 380.719 249.043 378.504 247.59 375.668C246.137 372.809 245.41 369.609 245.41 366.07V364.559C245.41 360.902 246.113 357.609 247.52 354.68C248.949 351.75 250.93 349.453 253.461 347.789C255.992 346.102 258.734 345.258 261.688 345.258C266.305 345.258 269.961 346.84 272.656 350.004C275.375 353.145 276.734 357.445 276.734 362.906V365.262H249.594V366.07C249.594 370.383 250.824 373.98 253.285 376.863C255.77 379.723 258.887 381.152 262.637 381.152C264.887 381.152 266.867 380.742 268.578 379.922C270.312 379.102 271.883 377.789 273.289 375.984L275.926 377.988C272.832 382.465 268.344 384.703 262.461 384.703ZM261.688 348.844C258.523 348.844 255.852 350.004 253.672 352.324C251.516 354.645 250.203 357.762 249.734 361.676H272.551V361.219C272.434 357.562 271.391 354.586 269.422 352.289C267.453 349.992 264.875 348.844 261.688 348.844ZM294.031 375.246L294.664 378.516L295.508 375.07L304.648 345.961H308.234L317.27 374.824L318.254 378.832L319.062 375.141L326.867 345.961H331.227L320.152 384H316.566L306.793 353.836L306.336 351.762L305.879 353.871L296.281 384H292.695L281.656 345.961H285.98L294.031 375.246ZM336.887 364.418C336.887 360.762 337.59 357.469 338.996 354.539C340.426 351.609 342.43 349.336 345.008 347.719C347.609 346.078 350.551 345.258 353.832 345.258C358.895 345.258 362.996 347.039 366.137 350.602C369.277 354.141 370.848 358.84 370.848 364.699V365.578C370.848 369.258 370.133 372.574 368.703 375.527C367.297 378.457 365.305 380.719 362.727 382.312C360.148 383.906 357.207 384.703 353.902 384.703C348.863 384.703 344.762 382.934 341.598 379.395C338.457 375.832 336.887 371.121 336.887 365.262V364.418ZM341.105 365.578C341.105 370.125 342.277 373.863 344.621 376.793C346.988 379.699 350.082 381.152 353.902 381.152C357.699 381.152 360.77 379.699 363.113 376.793C365.48 373.863 366.664 370.008 366.664 365.227V364.418C366.664 361.512 366.125 358.852 365.047 356.438C363.969 354.023 362.457 352.16 360.512 350.848C358.566 349.512 356.34 348.844 353.832 348.844C350.082 348.844 347.023 350.32 344.656 353.273C342.289 356.203 341.105 360.047 341.105 364.805V365.578ZM397.145 349.547C396.254 349.383 395.305 349.301 394.297 349.301C391.672 349.301 389.445 350.039 387.617 351.516C385.812 352.969 384.523 355.09 383.75 357.879V384H379.566V345.961H383.68L383.75 352.008C385.977 347.508 389.551 345.258 394.473 345.258C395.645 345.258 396.57 345.41 397.25 345.715L397.145 349.547ZM412.859 364.84L408.043 369.48V384H403.824V330H408.043V364.559L412.016 360.27L426.57 345.961H431.879L415.742 361.992L433.285 384H428.258L412.859 364.84Z" fill="white"/>
</g>
<defs>
<clipPath id="clip0">
<rect width="512" height="512" fill="white"/>
</clipPath>
</defs>
</svg>
