<svg width="89" height="72" viewBox="0 0 89 72" fill="none" xmlns="http://www.w3.org/2000/svg">
<circle cx="42.3047" cy="26.1176" r="4.79144" fill="black"/>
<path d="M14.7539 47.0802C29.8526 24.3011 45.4015 37.5889 51.2887 47.0802" stroke="black" stroke-width="4"/>
<path d="M22.3949 13.8888C44.842 1.17113 33.1901 1.68671 57.0079 6.49879C67.289 16.5813 87.3371 38.8772 85.2808 47.4015C82.7106 58.0568 69.0025 62.6971 54.2663 66.3061C39.53 69.9152 11.4285 69.5715 6.97332 48.6045C2.51819 27.6376 -0.052083 26.6064 22.3949 13.8888Z" stroke="black" stroke-width="6"/>
<mask id="mask0" mask-type="alpha" maskUnits="userSpaceOnUse" x="14" y="21" width="16" height="14">
<rect width="11.5916" height="8.81237" transform="matrix(0.885795 0.464076 -0.465995 0.884787 18.8604 21.3262)" fill="#C4C4C4"/>
</mask>
<g mask="url(#mask0)">
<ellipse cx="22.5902" cy="26.5131" rx="4.8651" ry="4.85231" fill="black"/>
</g>
</svg>
