<svg width="550" height="550" viewBox="0 0 550 550" fill="none" xmlns="http://www.w3.org/2000/svg">
<path d="M30 146.203C45.271 239.205 115.65 448.767 275 543V13.4388C275 74.5305 111.667 127.403 30 146.203Z" fill="#27C200"/>
<path d="M520 146.463C504.729 239.638 434.35 449.591 275 544V13.4508C275 74.6565 438.333 127.628 520 146.463Z" fill="#1E9600"/>
<path d="M379.238 377.512C367.52 387.473 354.453 395.148 340.039 400.539C325.625 405.812 310.625 408.449 295.039 408.449C283.086 408.449 271.543 406.867 260.41 403.703C249.395 400.656 239.082 396.32 229.473 390.695C219.863 384.953 211.074 378.156 203.105 370.305C195.137 362.336 188.34 353.547 182.715 343.938C177.09 334.211 172.695 323.781 169.531 312.648C166.484 301.516 164.961 289.973 164.961 278.02C164.961 266.066 166.484 254.582 169.531 243.566C172.695 232.551 177.09 222.238 182.715 212.629C188.34 202.902 195.137 194.113 203.105 186.262C211.074 178.293 219.863 171.496 229.473 165.871C239.082 160.246 249.395 155.91 260.41 152.863C271.543 149.699 283.086 148.117 295.039 148.117C310.625 148.117 325.625 150.812 340.039 156.203C354.453 161.477 367.52 169.094 379.238 179.055L352.871 223C345.254 215.266 336.465 209.23 326.504 204.895C316.543 200.441 306.055 198.215 295.039 198.215C284.023 198.215 273.652 200.324 263.926 204.543C254.316 208.762 245.879 214.504 238.613 221.77C231.348 228.918 225.605 237.355 221.387 247.082C217.168 256.691 215.059 267.004 215.059 278.02C215.059 289.152 217.168 299.582 221.387 309.309C225.605 319.035 231.348 327.531 238.613 334.797C245.879 342.062 254.316 347.805 263.926 352.023C273.652 356.242 284.023 358.352 295.039 358.352C301.367 358.352 307.52 357.59 313.496 356.066C319.473 354.543 325.156 352.434 330.547 349.738V278.02H379.238V377.512Z" fill="white"/>
</svg>
