<svg xmlns:xlink="http://www.w3.org/1999/xlink" width="515" xmlns="http://www.w3.org/2000/svg" height="515" id="screenshot-bae5b0b0-056e-11ed-b90e-838fda5d7559" viewBox="-7.5 -7.5 515 515" style="-webkit-print-color-adjust: exact;" fill="none" version="1.1">
    <g id="shape-bae5b0b0-056e-11ed-b90e-838fda5d7559">
        <defs>
            <clipPath id="frame-clip-bae5b0b0-056e-11ed-b90e-838fda5d7559-dc5e7500-056f-11ed-9d73-05193d74bc9a" class="frame-clip">
                <rect rx="249.99999999999997" ry="249.99999999999997" x="0" y="0" width="500" height="499.99999999999994" style="fill: rgb(0, 154, 126); fill-opacity: 1;" />
            </clipPath>
        </defs>
        <g clip-path="url(#frame-clip-bae5b0b0-056e-11ed-b90e-838fda5d7559-dc5e7500-056f-11ed-9d73-05193d74bc9a)">
            <g id="fills-bae5b0b0-056e-11ed-b90e-838fda5d7559">
                <rect width="500" height="499.99999999999994" class="frame-background" x="0" transform="matrix(1,0,0,1,0,0)" style="fill: rgb(0, 154, 126); fill-opacity: 1;" ry="249.99999999999997" rx="249.99999999999997" y="0" />
            </g>
            <g class="frame-children">
                <g id="shape-bae5d7c0-056e-11ed-b90e-838fda5d7559" rx="0" ry="0">
                    <g id="shape-bae5d7c1-056e-11ed-b90e-838fda5d7559">
                        <g id="fills-bae5d7c1-056e-11ed-b90e-838fda5d7559">
                            <path d="M290.6683100863669,278.5789254379883 h0 a26.084791870843315,26.084791870843315 0 0 1 26.084791870843315,26.084791870843315 v50.48037986870068 a11.856723577656052,11.856723577656052 0 0 1 -11.856723577656052,11.856723577656052 h-28.45613658637453 a11.856723577656052,11.856723577656052 0 0 1 -11.856723577656052,-11.856723577656052 v-50.48037986870068 a26.084791870843315,26.084791870843315 0 0 1 26.084791870843315,-26.084791870843315 z" x="264.58351821552355" y="278.5789254379883" transform="matrix(0.8992247970528785,-0.4507406172689974,0.4571767736403501,0.882867252898581,-118.27987480682589,168.82527808118715)" width="52.16958374168663" height="88.42189531720005" style="fill: rgb(255, 254, 251); fill-opacity: 1;" />
                        </g>
                        <g id="strokes-bae5d7c1-056e-11ed-b90e-838fda5d7559">
                            <g class="stroke-shape">
                                <path d="M290.6683100863669,278.5789254379883 h0 a26.084791870843315,26.084791870843315 0 0 1 26.084791870843315,26.084791870843315 v50.48037986870068 a11.856723577656052,11.856723577656052 0 0 1 -11.856723577656052,11.856723577656052 h-28.45613658637453 a11.856723577656052,11.856723577656052 0 0 1 -11.856723577656052,-11.856723577656052 v-50.48037986870068 a26.084791870843315,26.084791870843315 0 0 1 26.084791870843315,-26.084791870843315 z" x="264.58351821552355" y="278.5789254379883" transform="matrix(0.8992247970528785,-0.4507406172689974,0.4571767736403501,0.882867252898581,-118.27987480682589,168.82527808118715)" width="52.16958374168663" height="88.42189531720005" style="fill: none; stroke-width: 15; stroke: rgb(0, 0, 0); stroke-opacity: 1;" />
                            </g>
                        </g>
                    </g>
                    <g id="shape-bae5d7c2-056e-11ed-b90e-838fda5d7559">
                        <g id="fills-bae5d7c2-056e-11ed-b90e-838fda5d7559">
                            <path rx="0" ry="0" d="M27.858426899761298,173.93402785630093C156.3764912857771,127.05766179161658,281.6162419397044,146.1603955034085,307.3584268997613,216.56597214369907C333.10061185981795,286.97154878398953,249.65963748625518,382.18960607901465,121.14157310023893,429.06597214369896C-7.376491285776979,475.9423382083835,-132.61624193970408,456.8396044965915,-158.35842689976107,386.4340278563008C-184.10061185981806,316.02845121601024,-100.65963748625484,220.81039392098535,27.858426899761298,173.93402785630093Z" style="fill: rgb(255, 254, 251); fill-opacity: 1;" />
                        </g>
                        <g id="strokes-bae5d7c2-056e-11ed-b90e-838fda5d7559">
                            <g class="stroke-shape">
                                <path rx="0" ry="0" d="M27.858426899761298,173.93402785630093C156.3764912857771,127.05766179161658,281.6162419397044,146.1603955034085,307.3584268997613,216.56597214369907C333.10061185981795,286.97154878398953,249.65963748625518,382.18960607901465,121.14157310023893,429.06597214369896C-7.376491285776979,475.9423382083835,-132.61624193970408,456.8396044965915,-158.35842689976107,386.4340278563008C-184.10061185981806,316.02845121601024,-100.65963748625484,220.81039392098535,27.858426899761298,173.93402785630093Z" style="fill: none; stroke-width: 15; stroke: rgb(0, 0, 0); stroke-opacity: 1;" />
                            </g>
                        </g>
                    </g>
                    <g id="shape-bae5d7c3-056e-11ed-b90e-838fda5d7559">
                        <g id="fills-bae5d7c3-056e-11ed-b90e-838fda5d7559">
                            <path d="M190.4175107965304,345.54840437686073 h0 a26.085520908407208,26.085520908407208 0 0 1 26.085520908407208,26.085520908407208 v50.476905609944325 a11.857054958366913,11.857054958366913 0 0 1 -11.857054958366913,11.857054958366913 h-28.456931900080594 a11.857054958366913,11.857054958366913 0 0 1 -11.857054958366913,-11.857054958366913 v-50.476905609944325 a26.085520908407208,26.085520908407208 0 0 1 26.085520908407208,-26.085520908407208 z" x="164.3319898881232" y="345.54840437686073" transform="matrix(0.8991996655380451,-0.45072801998016193,0.45718925450752845,0.8828913550611245,-158.99908702776133,131.47055583920428)" width="52.171041816814416" height="88.41948147671845" style="fill: rgb(255, 254, 251); fill-opacity: 1;" />
                        </g>
                        <g id="strokes-bae5d7c3-056e-11ed-b90e-838fda5d7559">
                            <g class="stroke-shape">
                                <path d="M190.4175107965304,345.54840437686073 h0 a26.085520908407208,26.085520908407208 0 0 1 26.085520908407208,26.085520908407208 v50.476905609944325 a11.857054958366913,11.857054958366913 0 0 1 -11.857054958366913,11.857054958366913 h-28.456931900080594 a11.857054958366913,11.857054958366913 0 0 1 -11.857054958366913,-11.857054958366913 v-50.476905609944325 a26.085520908407208,26.085520908407208 0 0 1 26.085520908407208,-26.085520908407208 z" x="164.3319898881232" y="345.54840437686073" transform="matrix(0.8991996655380451,-0.45072801998016193,0.45718925450752845,0.8828913550611245,-158.99908702776133,131.47055583920428)" width="52.171041816814416" height="88.41948147671845" style="fill: none; stroke-width: 15; stroke: rgb(0, 0, 0); stroke-opacity: 1;" />
                            </g>
                        </g>
                    </g>
                    <g id="shape-c7255f10-056e-11ed-b90e-838fda5d7559">
                        <g id="fills-c7255f10-056e-11ed-b90e-838fda5d7559">
                            <path d="M260.5859017014619,208.53933935039595 h0 a26.132531909044815,26.132531909044815 0 0 1 26.132531909044815,26.132531909044815 v7.170507121870658 a7.127054157012223,7.127054157012223 0 0 1 -7.127054157012223,7.127054157012223 h-38.01095550406518 a7.127054157012223,7.127054157012223 0 0 1 -7.127054157012223,-7.127054157012223 v-7.170507121870656 a26.132531909044815,26.132531909044815 0 0 1 26.132531909044815,-26.132531909044815 z" x="234.4533697924171" y="208.53933935039595" transform="matrix(-0.8941225082255738,0.4517785924249443,-0.4561066338146711,-0.8878667518799175,597.9180146824199,314.1306676945922)" width="52.26506381808963" height="40.430093187927696" style="fill: rgb(255, 254, 251); fill-opacity: 1;" />
                        </g>
                        <g id="strokes-c7255f10-056e-11ed-b90e-838fda5d7559">
                            <g class="stroke-shape">
                                <path d="M260.5859017014619,208.53933935039595 h0 a26.132531909044815,26.132531909044815 0 0 1 26.132531909044815,26.132531909044815 v7.170507121870658 a7.127054157012223,7.127054157012223 0 0 1 -7.127054157012223,7.127054157012223 h-38.01095550406518 a7.127054157012223,7.127054157012223 0 0 1 -7.127054157012223,-7.127054157012223 v-7.170507121870656 a26.132531909044815,26.132531909044815 0 0 1 26.132531909044815,-26.132531909044815 z" x="234.4533697924171" y="208.53933935039595" transform="matrix(-0.8941225082255738,0.4517785924249443,-0.4561066338146711,-0.8878667518799175,597.9180146824199,314.1306676945922)" width="52.26506381808963" height="40.430093187927696" style="fill: none; stroke-width: 15; stroke: rgb(0, 0, 0); stroke-opacity: 1;" />
                            </g>
                        </g>
                    </g>
                    <g id="shape-bae5d7c4-056e-11ed-b90e-838fda5d7559">
                        <g id="fills-bae5d7c4-056e-11ed-b90e-838fda5d7559">
                            <ellipse rx="20.275221684887015" ry="20.27522168488781" cx="278.9999999999999" cy="142" transform="matrix(0.9393250406834416,-0.3430283777547472,0.3430283777547291,0.939325040683405,-31.781715991851684,104.3207616165309)" style="fill: rgb(0, 0, 0); fill-opacity: 1;" />
                        </g>
                    </g>
                    <g id="shape-bae5d7c5-056e-11ed-b90e-838fda5d7559">
                        <g id="fills-bae5d7c5-056e-11ed-b90e-838fda5d7559">
                            <ellipse rx="20.275221684887" ry="20.27522168488735" cx="164" cy="194" transform="matrix(0.9393250344399153,-0.34302839485157965,0.34302839485157505,0.9393250344399036,-56.59681424935167,68.02760007431777)" style="fill: rgb(0, 0, 0); fill-opacity: 1;" />
                        </g>
                    </g>
                </g>
            </g>
        </g>
        <g id="strokes-bae5b0b0-056e-11ed-b90e-838fda5d7559">
            <g class="stroke-shape">
                <rect width="500" height="499.99999999999994" class="frame-background" x="0" transform="matrix(1,0,0,1,0,0)" style="fill: none; stroke-width: 15; stroke: rgb(0, 0, 0); stroke-opacity: 1;" ry="249.99999999999997" rx="249.99999999999997" y="0" />
            </g>
        </g>
    </g>
</svg>