<svg width="48" height="48" viewBox="0 0 48 48" fill="none" xmlns="http://www.w3.org/2000/svg">
<g clip-path="url(#clip0)">
<path d="M21.4694 2.29746C23.3258 1.22566 25.613 1.22566 27.4694 2.29746L42.254 10.8334C44.1104 11.9052 45.254 13.8859 45.254 16.0295V33.1013C45.254 35.2449 44.1104 37.2257 42.254 38.2975L27.4694 46.8334C25.613 47.9052 23.3258 47.9052 21.4694 46.8334L6.68481 38.2975C4.8284 37.2257 3.68481 35.2449 3.68481 33.1013V16.0295C3.68481 13.8859 4.8284 11.9052 6.68481 10.8334L21.4694 2.29746Z" fill="#610798"/>
<mask id="mask0" style="mask-type:alpha" maskUnits="userSpaceOnUse" x="-6" y="-5" width="51" height="41">
<rect x="-6" y="18.1562" width="46.3123" height="20.0886" transform="rotate(-30 -6 18.1562)" fill="#C4C4C4"/>
</mask>
<g mask="url(#mask0)">
<path d="M21.4694 2.29746C23.3258 1.22566 25.613 1.22566 27.4694 2.29746L42.254 10.8334C44.1104 11.9052 45.254 13.8859 45.254 16.0295V33.1013C45.254 35.2449 44.1104 37.2257 42.254 38.2975L27.4694 46.8334C25.613 47.9052 23.3258 47.9052 21.4694 46.8334L6.68481 38.2975C4.8284 37.2257 3.68481 35.2449 3.68481 33.1013V16.0295C3.68481 13.8859 4.8284 11.9052 6.68481 10.8334L21.4694 2.29746Z" fill="#9642CA"/>
</g>
<path d="M37.4694 24.0654C37.4694 31.5213 31.4253 37.5654 23.9694 37.5654C16.5136 37.5654 10.4694 31.5213 10.4694 24.0654C10.4694 16.6096 16.5136 10.5654 23.9694 10.5654C31.4253 10.5654 37.4694 16.6096 37.4694 24.0654ZM17.1259 24.0654C17.1259 27.845 20.1898 30.909 23.9694 30.909C27.749 30.909 30.813 27.845 30.813 24.0654C30.813 20.2858 27.749 17.2219 23.9694 17.2219C20.1898 17.2219 17.1259 20.2858 17.1259 24.0654Z" fill="white"/>
<mask id="mask1" style="mask-type:alpha" maskUnits="userSpaceOnUse" x="23" y="4" width="35" height="34">
<path d="M46.4598 11.0654L46.4598 37.0462L23.9598 24.0558L46.4598 11.0654Z" fill="#C4C4C4"/>
</mask>
<g mask="url(#mask1)">
<path d="M21.4694 2.29746C23.3258 1.22566 25.613 1.22566 27.4694 2.29746L42.254 10.8334C44.1104 11.9052 45.254 13.8859 45.254 16.0295V33.1013C45.254 35.2449 44.1104 37.2257 42.254 38.2975L27.4694 46.8334C25.613 47.9052 23.3258 47.9052 21.4694 46.8334L6.68481 38.2975C4.8284 37.2257 3.68481 35.2449 3.68481 33.1013V16.0295C3.68481 13.8859 4.8284 11.9052 6.68481 10.8334L21.4694 2.29746Z" fill="#7825AB"/>
</g>
<path d="M40.6725 25.9974H39.3005L38.8665 27.4954C38.8385 27.6074 38.7685 27.6634 38.6565 27.6634H37.9705C37.8398 27.6634 37.7978 27.6074 37.8445 27.4954L38.2645 25.9974H36.4445L36.0105 27.4954C35.9825 27.6074 35.9078 27.6634 35.7865 27.6634H35.1005C34.9885 27.6634 34.9465 27.6074 34.9745 27.4954L35.4085 25.9974H34.2885C34.1671 25.9974 34.1065 25.9414 34.1065 25.8294V25.3114C34.1065 25.1994 34.1671 25.1434 34.2885 25.1434H35.6465L36.1505 23.3794H35.0445C34.9325 23.3794 34.8765 23.3187 34.8765 23.1974V22.6934C34.8765 22.5721 34.9325 22.5114 35.0445 22.5114H36.4025L36.8505 20.9854C36.8785 20.8641 36.9531 20.8034 37.0745 20.8034H37.7745C37.8771 20.8034 37.9145 20.8641 37.8865 20.9854L37.4385 22.5114H39.2725L39.7205 20.9854C39.7485 20.8641 39.8231 20.8034 39.9445 20.8034H40.6305C40.7518 20.8034 40.7891 20.8641 40.7425 20.9854L40.3085 22.5114H41.4285C41.5498 22.5114 41.6105 22.5721 41.6105 22.6934V23.1974C41.6105 23.3187 41.5498 23.3794 41.4285 23.3794H40.0565L39.5385 25.1434H40.6725C40.7845 25.1434 40.8405 25.1994 40.8405 25.3114V25.8294C40.8405 25.9414 40.7845 25.9974 40.6725 25.9974ZM38.5025 25.1434L39.0205 23.3794H37.1865L36.6825 25.1434H38.5025Z" fill="white"/>
</g>
<defs>
<clipPath id="clip0">
<rect width="48" height="48" fill="white"/>
</clipPath>
</defs>
</svg>
