<svg width="512" height="512" viewBox="0 0 512 512" fill="none" xmlns="http://www.w3.org/2000/svg">
<g clip-path="url(#clip0)">
<path fill-rule="evenodd" clip-rule="evenodd" d="M396.5 127L395.524 198.902C395.049 233.906 366.537 262.033 331.53 262.033H256H181.333C151.878 262.033 128 285.911 128 315.367V450.721C128 473.601 140.467 494.591 162.522 500.678C183.804 506.551 214.945 512.2 256 512.2C297.055 512.2 328.196 506.551 349.478 500.678C371.533 494.591 384 473.601 384 450.721V392.7H256V382.15H451.742C472.591 382.15 492.036 371.67 498.505 351.85C505.253 331.176 512 299.443 512 255.2C512 210.985 505.262 178.952 498.518 157.964C492.036 137.793 472.319 127 451.131 127H396.5ZM333 427.7C321.954 427.7 313 436.654 313 447.7C313 458.746 321.954 467.7 333 467.7C344.046 467.7 353 458.746 353 447.7C353 436.654 344.046 427.7 333 427.7Z" fill="#EBC439"/>
<path fill-rule="evenodd" clip-rule="evenodd" d="M115.5 385.207L116.476 313.305C116.951 278.301 145.463 250.174 180.47 250.174H256H330.667C360.122 250.174 384 226.296 384 196.841V61.486C384 38.6059 371.533 17.616 349.478 11.5294C328.196 5.65644 297.055 0.00740123 256 0.00740123C214.945 0.00740123 183.804 5.65644 162.522 11.5294C140.467 17.616 128 38.6059 128 61.486V119.507H256V130.057H60.258C39.4095 130.057 19.9645 140.537 13.4952 160.357C6.74679 181.031 0 212.764 0 257.007C0 301.223 6.73829 333.255 13.4824 354.243C19.9643 374.414 39.6815 385.207 60.8686 385.207H115.5ZM179 84.5074C190.046 84.5074 199 75.5531 199 64.5074C199 53.4617 190.046 44.5074 179 44.5074C167.954 44.5074 159 53.4617 159 64.5074C159 75.5531 167.954 84.5074 179 84.5074Z" fill="#427BB0"/>
</g>
<defs>
<clipPath id="clip0">
<rect width="512" height="512" fill="white"/>
</clipPath>
</defs>
</svg>
